<svg width="36" height="36" viewBox="0 0 36 36" fill="none" xmlns="http://www.w3.org/2000/svg">
<g clip-path="url(#clip0_858_2565)">
<path d="M14.6666 26.3337C15.1268 26.3337 15.4999 25.9606 15.4999 25.5003C15.4999 25.0401 15.1268 24.667 14.6666 24.667C14.2063 24.667 13.8333 25.0401 13.8333 25.5003C13.8333 25.9606 14.2063 26.3337 14.6666 26.3337Z" stroke="#F5EDE0" stroke-width="1.66667" stroke-linecap="round" stroke-linejoin="round"/>
<path d="M23.8333 26.3337C24.2936 26.3337 24.6667 25.9606 24.6667 25.5003C24.6667 25.0401 24.2936 24.667 23.8333 24.667C23.3731 24.667 23 25.0401 23 25.5003C23 25.9606 23.3731 26.3337 23.8333 26.3337Z" stroke="#F5EDE0" stroke-width="1.66667" stroke-linecap="round" stroke-linejoin="round"/>
<path d="M9.70825 9.70801H11.3749L13.5916 20.058C13.6729 20.4371 13.8838 20.7759 14.188 21.0162C14.4922 21.2565 14.8707 21.3833 15.2583 21.3747H23.4083C23.7876 21.3741 24.1553 21.2441 24.4508 21.0062C24.7462 20.7683 24.9517 20.4368 25.0333 20.0663L26.4083 13.8747H12.2666" stroke="#F5EDE0" stroke-width="1.66667" stroke-linecap="round" stroke-linejoin="round"/>
</g>
<defs>
<clipPath id="clip0_858_2565">
<rect width="20" height="20" fill="white" transform="translate(8 8)"/>
</clipPath>
</defs>
</svg>
